<svg width="56" height="56" viewBox="0 0 56 56" fill="none" xmlns="http://www.w3.org/2000/svg">
<rect width="56" height="56" rx="6" fill="#F2EFFF"/>
<g clip-path="url(#clip0_4867_14722)">
<path fill-rule="evenodd" clip-rule="evenodd" d="M20.9849 18C19.6155 18 18.6022 19.1964 18.6475 20.494C18.6911 21.7405 18.6345 23.355 18.2273 24.6716C17.8189 25.9921 17.1282 26.8285 16 26.9359V28.1484C17.1282 28.2558 17.8189 29.0923 18.2273 30.4127C18.6345 31.7294 18.6911 33.3438 18.6475 34.5904C18.6022 35.8877 19.6155 37.0843 20.9851 37.0843H35.0169C36.3864 37.0843 37.3995 35.8879 37.3541 34.5904C37.3106 33.3438 37.3671 31.7294 37.7743 30.4127C38.1829 29.0923 38.8718 28.2558 40 28.1484V26.9359C38.8718 26.8285 38.1829 25.9921 37.7743 24.6716C37.3671 23.3552 37.3106 21.7405 37.3541 20.494C37.3995 19.1966 36.3864 18 35.0169 18H20.9847H20.9849ZM32.2712 29.7476C32.2712 31.5342 30.9361 32.6178 28.7206 32.6178H24.9492C24.8413 32.6178 24.7378 32.575 24.6615 32.4989C24.5852 32.4227 24.5424 32.3194 24.5424 32.2117V22.8726C24.5424 22.7649 24.5852 22.6616 24.6615 22.5855C24.7378 22.5093 24.8413 22.4665 24.9492 22.4665H28.6991C30.5464 22.4665 31.7588 23.4654 31.7588 24.9991C31.7588 26.0755 30.9433 27.0393 29.9041 27.208V27.2642C31.3187 27.4191 32.2712 28.3969 32.2712 29.7476ZM28.3094 23.7537H26.1589V26.7857H27.9701C29.3702 26.7857 30.1423 26.2229 30.1423 25.2169C30.1423 24.2743 29.4784 23.7537 28.3094 23.7537ZM26.1589 27.9888V31.3302H28.3885C29.8462 31.3302 30.6184 30.7463 30.6184 29.649C30.6184 28.5514 29.8246 27.9886 28.2947 27.9886H26.1589V27.9888Z" fill="#754FFE"/>
</g>
<defs>
<clipPath id="clip0_4867_14722">
<rect width="24" height="19.0843" fill="white" transform="translate(16 18)"/>
</clipPath>
</defs>
</svg>
