<svg width="92" height="104" viewBox="0 0 92 104" fill="none" xmlns="http://www.w3.org/2000/svg">
<g filter="url(#filter0_d_4854_15245)">
<rect x="6" y="5" width="80" height="91.4286" rx="6" fill="white"/>
</g>
<path d="M6 11C6 7.68629 8.68629 5 12 5H80C83.3137 5 86 7.68629 86 11V50H6V11Z" fill="#EAEDF2"/>
<path d="M37.6654 21.6735L6 50H86V41.88L72.495 30.7834C72.1361 30.4885 71.6215 30.4796 71.2526 30.7618L57.462 41.3116C57.0438 41.6315 56.4493 41.5724 56.1023 41.1765L39.0841 21.7597C38.7175 21.3414 38.08 21.3027 37.6654 21.6735Z" fill="url(#paint0_linear_4854_15245)"/>
<line x1="19.25" y1="61.75" x2="56.75" y2="61.75" stroke="#C1C6D2" stroke-width="2.5" stroke-linecap="round"/>
<line x1="19" y1="69" x2="73" y2="69" stroke="#C1C6D2" stroke-opacity="0.4" stroke-width="2" stroke-linecap="round"/>
<line x1="19" y1="75" x2="67" y2="75" stroke="#C1C6D2" stroke-opacity="0.3" stroke-width="2" stroke-linecap="round"/>
<line x1="19" y1="81" x2="62" y2="81" stroke="#C1C6D2" stroke-opacity="0.2" stroke-width="2" stroke-linecap="round"/>
<circle cx="60" cy="19" r="5" fill="#754FFE"/>
<defs>
<filter id="filter0_d_4854_15245" x="0" y="0" width="92" height="103.428" filterUnits="userSpaceOnUse" color-interpolation-filters="sRGB">
<feFlood flood-opacity="0" result="BackgroundImageFix"/>
<feColorMatrix in="SourceAlpha" type="matrix" values="0 0 0 0 0 0 0 0 0 0 0 0 0 0 0 0 0 0 127 0" result="hardAlpha"/>
<feMorphology radius="1" operator="dilate" in="SourceAlpha" result="effect1_dropShadow_4854_15245"/>
<feOffset dy="1"/>
<feGaussianBlur stdDeviation="2.5"/>
<feColorMatrix type="matrix" values="0 0 0 0 0 0 0 0 0 0 0 0 0 0 0 0 0 0 0.1 0"/>
<feBlend mode="normal" in2="BackgroundImageFix" result="effect1_dropShadow_4854_15245"/>
<feBlend mode="normal" in="SourceGraphic" in2="effect1_dropShadow_4854_15245" result="shape"/>
</filter>
<linearGradient id="paint0_linear_4854_15245" x1="46" y1="5.5" x2="46" y2="50" gradientUnits="userSpaceOnUse">
<stop stop-color="#C1C6D2"/>
<stop offset="1" stop-color="#C1C6D2" stop-opacity="0"/>
</linearGradient>
</defs>
</svg>
