<svg width="56" height="56" viewBox="0 0 56 56" fill="none" xmlns="http://www.w3.org/2000/svg">
<rect width="56" height="56" rx="6" fill="#F2EFFF"/>
<path d="M40 33.3334V22.6667C39.9995 22.1991 39.8761 21.7398 39.6421 21.3349C39.408 20.9301 39.0717 20.5938 38.6667 20.36L29.3333 15.0267C28.9279 14.7927 28.4681 14.6694 28 14.6694C27.5319 14.6694 27.0721 14.7927 26.6667 15.0267L17.3333 20.36C16.9284 20.5938 16.592 20.9301 16.3579 21.3349C16.1239 21.7398 16.0005 22.1991 16 22.6667V33.3334C16.0005 33.801 16.1239 34.2603 16.3579 34.6651C16.592 35.07 16.9284 35.4062 17.3333 35.64L26.6667 40.9734C27.0721 41.2074 27.5319 41.3306 28 41.3306C28.4681 41.3306 28.9279 41.2074 29.3333 40.9734L38.6667 35.64C39.0717 35.4062 39.408 35.07 39.6421 34.6651C39.8761 34.2603 39.9995 33.801 40 33.3334Z" stroke="#754FFE" stroke-width="2" stroke-linecap="round" stroke-linejoin="round"/>
<path d="M16.3599 21.2798L27.9999 28.0131L39.6399 21.2798" stroke="#754FFE" stroke-width="2" stroke-linecap="round" stroke-linejoin="round"/>
<path d="M28 41.44V28" stroke="#754FFE" stroke-width="2" stroke-linecap="round" stroke-linejoin="round"/>
</svg>
