<svg width="86" height="98" viewBox="0 0 86 98" fill="none" xmlns="http://www.w3.org/2000/svg">
<g filter="url(#filter0_d_4854_15254)">
<rect x="3" y="2" width="80" height="91.4286" rx="5.71" fill="white"/>
</g>
<line x1="24.5" y1="61.5" x2="39.5" y2="61.5" stroke="#C1C6D2" stroke-linecap="round"/>
<rect x="15" y="16" width="56" height="10" rx="2" fill="#C1C6D2" fill-opacity="0.6"/>
<rect x="15" y="30" width="56" height="10" rx="2" fill="#C1C6D2" fill-opacity="0.6"/>
<rect x="15" y="44" width="56" height="10" rx="2" fill="#C1C6D2" fill-opacity="0.6"/>
<path d="M65 48.5L66 49.5L67 48.5" stroke="#686E7E" stroke-width="0.5" stroke-linecap="round" stroke-linejoin="round"/>
<rect x="15.25" y="58.25" width="5.5" height="5.5" rx="0.75" stroke="#C1C6D2" stroke-width="0.5"/>
<path fill-rule="evenodd" clip-rule="evenodd" d="M50 71C49.4477 71 49 71.4477 49 72V80C49 80.5523 49.4477 81 50 81H70C70.5523 81 71 80.5523 71 80V72C71 71.4477 70.5523 71 70 71H50ZM54 74.75C53.4477 74.75 53 75.1977 53 75.75V76.25C53 76.8023 53.4477 77.25 54 77.25H66C66.5523 77.25 67 76.8023 67 76.25V75.75C67 75.1977 66.5523 74.75 66 74.75H54Z" fill="#754FFE"/>
<defs>
<filter id="filter0_d_4854_15254" x="0" y="0" width="86" height="97.4285" filterUnits="userSpaceOnUse" color-interpolation-filters="sRGB">
<feFlood flood-opacity="0" result="BackgroundImageFix"/>
<feColorMatrix in="SourceAlpha" type="matrix" values="0 0 0 0 0 0 0 0 0 0 0 0 0 0 0 0 0 0 127 0" result="hardAlpha"/>
<feOffset dy="1"/>
<feGaussianBlur stdDeviation="1.5"/>
<feColorMatrix type="matrix" values="0 0 0 0 0.0117647 0 0 0 0 0 0 0 0 0 0.278431 0 0 0 0.13 0"/>
<feBlend mode="normal" in2="BackgroundImageFix" result="effect1_dropShadow_4854_15254"/>
<feBlend mode="normal" in="SourceGraphic" in2="effect1_dropShadow_4854_15254" result="shape"/>
</filter>
</defs>
</svg>
