<svg width="139" height="29" viewBox="0 0 139 29" fill="none" xmlns="http://www.w3.org/2000/svg">
<path fill-rule="evenodd" clip-rule="evenodd" d="M25.2434 5.33377C26.8174 7.33981 26.0871 11.1792 25.3649 13.0177C25.3716 13.0199 25.3782 13.0221 25.3849 13.0243L25.3701 13.0248L23.6178 12.9082C23.6178 12.9053 23.6176 12.9013 23.6178 12.8993C23.959 8.93373 23.5663 7.34575 23.1835 7.07677C18.6004 10.3896 14.5067 9.33658 13.2413 9.01111C12.8968 8.9225 12.762 8.88781 12.884 9.00988C13.256 9.38185 14.1024 9.82821 14.7059 10.1465H14.706L14.7064 10.1467C14.8431 10.2188 14.9673 10.2843 15.0707 10.3409C10.0955 10.3984 8.09534 8.00279 7.5073 7.29846C7.44734 7.22664 7.40205 7.1724 7.3698 7.14015C7.08283 6.85318 5.46836 5.87252 4.96131 7.74227C4.47017 9.55335 4.78121 11.6775 4.9454 12.7988C4.95964 12.896 4.96132 12.8981 4.96132 12.9298L3.3451 13.0248L3.34088 13.0247C1.19224 8.05534 2.80729 5.26971 4.26411 4.2246C4.26411 1.78444 7.24303 -0.592359 11.0143 0.263262C15.8456 1.64043 17.3156 1.18409 19.0447 0.647278C19.7428 0.430562 20.4831 0.200726 21.5039 0.073124C26.1907 -0.512739 27.7681 2.56612 27.9688 4.16122C27.1829 3.70487 25.8244 4.73165 25.2434 5.33377ZM13.3062 1.5872C12.0913 1.16466 8.96132 0.717209 7.31655 2.41116C6.95272 2.78587 6.52429 3.48864 6.52429 3.48864C6.52429 3.48864 5.7954 4.81961 5.22497 4.24919C4.65454 3.67878 5.98555 1.96749 7.03134 1.46044C8.07713 0.953388 10.6758 0.0660505 13.3062 1.5872Z" fill="#754FFE"/>
<path d="M11.0467 13.5003H4.07476C3.19965 13.5003 2.49023 14.2097 2.49023 15.0848V18.3173C2.49023 19.1924 3.19965 19.9018 4.07476 19.9018H11.0467C11.9218 19.9018 12.6312 19.1924 12.6312 18.3173V15.0848C12.6312 14.2097 11.9218 13.5003 11.0467 13.5003Z" stroke="#754FFE" stroke-width="1.26763"/>
<path d="M1.79226 14.6093H1.3486C1.15607 14.6093 1 14.7654 1 14.9579V15.972C1 16.1645 1.15607 16.3206 1.3486 16.3206H1.79226C1.98479 16.3206 2.14086 16.1645 2.14086 15.972V14.9579C2.14086 14.7654 1.98479 14.6093 1.79226 14.6093Z" fill="#754FFE" stroke="#754FFE" stroke-width="0.0633813"/>
<path d="M17.7013 13.5003H24.6733C25.5484 13.5003 26.2578 14.2097 26.2578 15.0848V18.3173C26.2578 19.1924 25.5484 19.9018 24.6733 19.9018H17.7013C16.8262 19.9018 16.1168 19.1924 16.1168 18.3173V15.0848C16.1168 14.2097 16.8262 13.5003 17.7013 13.5003Z" stroke="#754FFE" stroke-width="1.26763"/>
<path d="M26.9548 14.6093H27.3985C27.591 14.6093 27.7471 14.7654 27.7471 14.9579V15.972C27.7471 16.1645 27.591 16.3206 27.3985 16.3206H26.9548C26.7623 16.3206 26.6062 16.1645 26.6062 15.972V14.9579C26.6062 14.7654 26.7623 14.6093 26.9548 14.6093Z" fill="#754FFE" stroke="#754FFE" stroke-width="0.0633813"/>
<path d="M13.2641 15.56H15.4825C15.675 15.56 15.8311 15.7161 15.8311 15.9086V16.9227C15.8311 17.1152 15.675 17.2713 15.4825 17.2713H13.2641C13.0716 17.2713 12.9155 17.1152 12.9155 16.9227V15.9086C12.9155 15.7161 13.0716 15.56 13.2641 15.56Z" fill="#754FFE" stroke="#754FFE" stroke-width="0.0633813"/>
<path d="M10.9022 16.3937C10.9022 16.7087 10.7319 16.9641 10.5219 16.9641C10.3119 16.9641 10.1416 16.7087 10.1416 16.3937C10.1416 16.0786 10.3119 15.8232 10.5219 15.8232C10.7319 15.8232 10.9022 16.0786 10.9022 16.3937Z" fill="#754FFE"/>
<path d="M17.9375 16.3937C17.9375 16.7087 18.1077 16.9641 18.3178 16.9641C18.5278 16.9641 18.6981 16.7087 18.6981 16.3937C18.6981 16.0786 18.5278 15.8232 18.3178 15.8232C18.1077 15.8232 17.9375 16.0786 17.9375 16.3937Z" fill="#754FFE"/>
<path d="M15.2445 20.1015C14.6107 20.6085 13.755 20.355 13.5332 20.1015C13.5965 20.4184 13.8374 20.8621 14.4205 20.8621C15.0036 20.8621 15.2128 20.355 15.2445 20.1015Z" fill="#754FFE"/>
<path fill-rule="evenodd" clip-rule="evenodd" d="M13.0999 22.4111C13.1262 22.2915 13.2446 22.2158 13.3643 22.2422L15.6034 22.7351C15.7231 22.7615 15.7987 22.8798 15.7723 22.9995C15.746 23.1191 15.6277 23.1948 15.508 23.1684L13.2689 22.6754C13.1492 22.6491 13.0736 22.5308 13.0999 22.4111Z" fill="#754FFE"/>
<path d="M14.389 27.6755C9.97772 27.7262 6.74103 23.6614 5.67411 21.6226C5.51566 21.3198 5.38891 21.274 5.29384 21.3374C5.14172 21.4388 5.25157 21.6438 5.29382 21.7494C5.82622 22.9917 6.55088 24.0417 6.84666 24.4114C5.80721 26.1354 5.46284 27.8551 5.42058 28.4995C7.14455 26.8009 8.88543 26.8833 9.54037 27.1368C14.6742 29.7988 17.5264 27.9291 19.1426 27.1368C20.4356 26.503 22.449 27.7389 23.2941 28.4361C23.1927 26.8643 22.3434 25.1403 21.9314 24.4748C22.5969 23.5874 23.1356 22.51 23.4209 21.9712C23.649 21.5402 23.5793 21.3691 23.5159 21.3374C23.3638 21.2614 23.1779 21.4959 23.104 21.6226C22.6286 22.4149 19.9032 27.6122 14.389 27.6755Z" fill="#754FFE"/>
<path d="M46.8296 10.8608H51.2046C50.6478 6.83381 47.0981 4 42.4944 4C37.1151 4 32.9688 7.87784 32.9688 14.4801C32.9688 20.9233 36.8467 24.9205 42.5839 24.9205C47.7245 24.9205 51.3935 21.669 51.3935 16.3097V13.7443H42.8722V16.9858H47.2472C47.1876 19.5114 45.4674 21.1122 42.6038 21.1122C39.3722 21.1122 37.3339 18.696 37.3339 14.4404C37.3339 10.2045 39.4517 7.80824 42.5639 7.80824C44.7812 7.80824 46.2827 8.95171 46.8296 10.8608Z" fill="#1E293B"/>
<path d="M60.3882 24.9404C64.1667 24.9404 66.7121 23.1009 67.3087 20.2671L63.3911 20.0085C62.9635 21.1719 61.8698 21.7784 60.4578 21.7784C58.3399 21.7784 56.9976 20.3764 56.9976 18.0994V18.0895H67.3982V16.9261C67.3982 11.7358 64.2561 9.17047 60.2192 9.17047C55.7249 9.17047 52.8115 12.3622 52.8115 17.0753C52.8115 21.9176 55.6851 24.9404 60.3882 24.9404ZM56.9976 15.4645C57.0871 13.7244 58.4096 12.3324 60.2888 12.3324C62.1283 12.3324 63.401 13.6449 63.411 15.4645H56.9976Z" fill="#1E293B"/>
<path d="M76.0025 24.9404C79.7809 24.9404 82.3264 23.1009 82.923 20.2671L79.0054 20.0085C78.5778 21.1719 77.4841 21.7784 76.0721 21.7784C73.9542 21.7784 72.6119 20.3764 72.6119 18.0994V18.0895H83.0125V16.9261C83.0125 11.7358 79.8704 9.17047 75.8335 9.17047C71.3392 9.17047 68.4258 12.3622 68.4258 17.0753C68.4258 21.9176 71.2994 24.9404 76.0025 24.9404ZM72.6119 15.4645C72.7014 13.7244 74.0238 12.3324 75.9031 12.3324C77.7426 12.3324 79.0153 13.6449 79.0252 15.4645H72.6119Z" fill="#1E293B"/>
<path d="M84.6562 24.6421H88.8921V19.7898L90.0355 18.4872L94.2017 24.6421H99.1634L93.2074 15.9815L98.875 9.36932H94.0127L89.1208 15.1662H88.8921V4.27841H84.6562V24.6421Z" fill="#1E293B"/>
<path d="M112.541 13.7244C112.163 10.9105 109.896 9.17047 106.038 9.17047C102.131 9.17047 99.5549 10.9801 99.5649 13.9233C99.5549 16.2102 100.997 17.6918 103.98 18.2884L106.625 18.8154C107.957 19.0838 108.564 19.571 108.584 20.3367C108.564 21.2415 107.579 21.8878 106.098 21.8878C104.587 21.8878 103.582 21.2415 103.324 19.9986L99.1572 20.2173C99.5549 23.1406 102.041 24.9404 106.088 24.9404C110.045 24.9404 112.879 22.9219 112.889 19.9091C112.879 17.7017 111.437 16.3793 108.474 15.7727L105.71 15.2159C104.288 14.9077 103.761 14.4205 103.771 13.6847C103.761 12.7699 104.795 12.1733 106.108 12.1733C107.579 12.1733 108.454 12.9787 108.663 13.9631L112.541 13.7244Z" fill="#1E293B"/>
<rect x="119.75" y="5.75" width="18.5" height="18.5" rx="5.25" stroke="#94A3B8" stroke-width="1.5"/>
<path d="M129.391 11V16.5099C129.391 17.5071 128.692 18.2273 127.618 18.2273C126.548 18.2273 125.845 17.5071 125.845 16.5099V11H124V16.6676C124 18.5767 125.44 19.8509 127.618 19.8509C129.787 19.8509 131.236 18.5767 131.236 16.6676V11H129.391Z" fill="#94A3B8"/>
<path d="M134.599 11H132.754V19.7273H134.599V11Z" fill="#94A3B8"/>
</svg>
