<svg width="56" height="56" viewBox="0 0 56 56" fill="none" xmlns="http://www.w3.org/2000/svg">
<rect width="56" height="56" rx="6" fill="#F2EFFF"/>
<g clip-path="url(#clip0_4867_14724)">
<path d="M32.1536 43.0245L32.4604 37.9119L33.3077 36.4657C33.3077 36.4657 31.3794 37.2545 28.1512 37.2545C24.9229 37.2545 23.0239 36.4803 23.0239 36.4803L23.9734 38.0579L24.3093 43.0245C24.3093 43.557 26.0653 43.9886 28.2315 43.9886C30.3976 43.9886 32.1536 43.557 32.1536 43.0245ZM31.1858 19.1492L31.8298 16.6036L35.3962 12.8509L34.4562 12.0503L30.6804 16.0479L29.9327 19.0892C29.3699 19.0703 28.8068 19.0609 28.2437 19.0611C24.2671 19.0611 21.0435 19.5143 21.0435 20.0732C21.0435 20.6322 24.2671 21.0853 28.2437 21.0853C32.2203 21.0853 35.4439 20.6322 35.4439 20.0732C35.4439 19.6616 33.6956 19.3073 31.1858 19.1492Z" fill="#754FFE"/>
<path d="M30.8113 20.5749C30.8113 20.5749 30.6718 20.6061 30.2615 20.6079C29.8511 20.6096 29.5597 20.6052 29.4436 20.4995C29.4124 20.4711 29.3953 20.4148 29.3955 20.3766C29.3958 20.3039 29.4474 20.2611 29.5131 20.2343L29.5752 20.3318C29.5482 20.3411 29.5328 20.3522 29.5327 20.3639C29.5325 20.4191 29.9524 20.4569 30.2735 20.4528C30.5947 20.4488 30.9828 20.4224 30.9831 20.368C30.9831 20.3515 30.9538 20.3361 30.9027 20.3238L30.9646 20.2271C31.0478 20.2529 31.1204 20.3028 31.1203 20.3892C31.1195 20.5361 30.9326 20.5584 30.8113 20.5749Z" fill="white"/>
<path d="M35.3892 12.8586C35.4788 12.755 35.3427 12.4901 35.0852 12.2669C34.8276 12.0439 34.546 11.947 34.4562 12.0506C34.3665 12.1541 34.5026 12.4191 34.7602 12.6421C35.0178 12.8652 35.2994 12.9622 35.3892 12.8586ZM31.9821 30.5366C31.8975 29.7233 33.7608 28.5456 33.2826 28.5078C32.2532 28.5667 31.7409 29.7142 31.2229 30.9161C31.0331 31.3566 30.3837 33.2348 29.9578 33.0036C29.5319 32.7725 30.5098 31.2279 30.7839 30.3107C30.4677 30.5426 29.3078 31.4437 29.0089 30.5998C28.5283 31.008 27.5014 31.2291 27.6173 30.157C27.3616 30.6098 26.7878 31.2421 26.0991 30.9794C25.1946 30.6344 26.6232 27.7533 26.9784 27.8986C27.3337 28.0439 26.9067 28.7002 26.7949 28.9551C26.549 29.516 26.2649 30.2211 26.4547 30.3655C26.7798 30.6128 27.6646 29.43 27.6843 29.404C27.8498 29.1853 28.3212 27.755 28.7012 27.9192C29.0812 28.0835 27.7534 29.972 28.2499 30.3468C28.35 30.4224 28.7597 30.3001 29.0089 30.0305C29.1701 29.8561 29.1147 29.4698 29.6522 28.188C30.1897 26.9062 30.6687 25.31 31.0373 25.4316C31.4059 25.5531 31.1021 26.3724 30.9699 26.6778C30.3493 28.1112 29.2763 30.4794 29.7823 30.3001C30.2884 30.1209 30.5519 30.1104 31.0474 29.5305C31.543 28.9506 31.5202 27.9954 31.8504 28.0157C32.1808 28.036 32.1254 28.3423 32.0453 28.5755C32.3704 28.2035 33.5862 27.42 33.8798 28.196C34.2275 29.1147 32.1402 30.4416 32.6606 30.374C33.168 30.308 33.9901 29.7873 34.3411 29.3139L35.3072 20.6284C35.3072 20.6284 34.335 21.4329 28.1502 21.4329C21.9653 21.4329 21.0938 20.6452 21.0938 20.6452L21.9163 28.573C22.3528 27.3322 23.3896 24.8224 25.0237 24.9066C25.7671 24.945 26.7594 26.3763 25.9094 26.4248C25.5496 26.4453 25.513 25.7104 25.087 25.6024C24.7795 25.5245 24.3515 25.7745 24.0748 26.0453C23.5231 26.5852 22.3366 28.7155 22.4934 29.7775C22.6931 31.1315 24.3618 29.307 24.6442 28.7653C24.843 28.3838 24.9773 27.2532 25.4122 27.3719C25.8472 27.4905 25.3743 28.6572 25.059 29.6887C24.7049 30.8469 24.5187 32.0688 24.0748 31.9282C23.6309 31.7878 24.354 30.2925 24.3278 30.0305C23.9106 30.4155 23.1419 31.39 22.1585 30.9077L22.6693 35.8308C22.6693 35.8308 24.027 36.9035 28.1167 36.9035C32.2064 36.9035 33.6143 35.8475 33.6143 35.8475L34.2486 30.1454C33.7296 30.6507 32.0872 31.5481 31.9821 30.5366Z" fill="#754FFE"/>
</g>
<defs>
<clipPath id="clip0_4867_14724">
<rect width="14.4768" height="32" fill="white" transform="translate(21 12)"/>
</clipPath>
</defs>
</svg>
