<svg width="397" height="405" viewBox="0 0 397 405" fill="none" xmlns="http://www.w3.org/2000/svg">
<path d="M129.988 152.872C132.091 150.951 134.339 151.296 135.49 151.667C136.508 149.044 138.704 146.051 143.412 146.051C151.811 146.051 152.472 154.316 152.472 154.316C158.384 152.528 159.522 157.759 159.522 157.971H127.766C127.766 154.594 129.988 152.872 129.988 152.872Z" fill="white"/>
<path d="M289.946 168.037C291.481 168.037 292.922 168.447 294.179 169.176C296.573 165.004 300.977 162.196 306.03 162.196C310.751 162.196 314.904 164.633 317.391 168.355C318.7 163.878 322.734 160.606 327.536 160.606C332.972 160.606 337.442 164.818 338.05 170.222C338.487 170.156 338.937 170.103 339.386 170.103C342.706 170.103 345.576 172.023 347.018 174.845H281.574C282.46 170.951 285.873 168.037 289.946 168.037Z" fill="white"/>
<path d="M248.125 9.05945C250.623 9.05945 252.648 7.03143 252.648 4.52973C252.648 2.02803 250.623 0 248.125 0C245.627 0 243.602 2.02803 243.602 4.52973C243.602 7.03143 245.627 9.05945 248.125 9.05945Z" fill="#E2E8F0"/>
<path d="M148.73 99.1112C148.73 100.78 147.38 102.144 145.701 102.144C144.034 102.144 142.672 100.793 142.672 99.1112C142.672 97.4423 144.021 96.0781 145.701 96.0781C147.38 96.0781 148.73 97.4423 148.73 99.1112Z" fill="#754FFE"/>
<path d="M269.657 83.1909L267.845 82.224C267.726 82.1578 267.634 82.0651 267.581 81.9591L266.615 80.1446C266.364 79.681 265.716 79.681 265.464 80.1446L264.499 81.9591C264.433 82.0783 264.34 82.171 264.234 82.224L262.422 83.1909C261.959 83.4425 261.959 84.0915 262.422 84.3432L264.234 85.31C264.353 85.3763 264.446 85.469 264.499 85.5749L265.464 87.3895C265.716 87.853 266.364 87.853 266.615 87.3895L267.581 85.5749C267.647 85.4557 267.739 85.363 267.845 85.31L269.657 84.3432C270.12 84.0915 270.12 83.4293 269.657 83.1909Z" fill="#E2E8F0"/>
<path d="M162.856 22.4632L160.568 21.2314C160.422 21.152 160.303 21.0328 160.237 20.9003L159.007 18.609C158.703 18.0262 157.869 18.0262 157.552 18.609L156.322 20.9003C156.243 21.046 156.123 21.1652 155.991 21.2314L153.703 22.4632C153.121 22.7678 153.121 23.6022 153.703 23.9069L155.991 25.1386C156.137 25.2181 156.256 25.3373 156.322 25.4698L157.552 27.7611C157.856 28.3439 158.689 28.3439 159.007 27.7611L160.237 25.4698C160.316 25.3241 160.435 25.2049 160.568 25.1386L162.856 23.9069C163.438 23.6022 163.438 22.7811 162.856 22.4632Z" fill="#CBD5E1"/>
<path d="M321.319 68.4094L318.555 66.9259C318.383 66.8332 318.238 66.6875 318.145 66.5154L316.664 63.7472C316.293 63.0452 315.288 63.0452 314.918 63.7472L313.436 66.5154C313.344 66.6875 313.198 66.8332 313.026 66.9259L310.262 68.4094C309.561 68.7802 309.561 69.7868 310.262 70.1577L313.026 71.6411C313.198 71.7338 313.344 71.8795 313.436 72.0517L314.918 74.8199C315.288 75.5218 316.293 75.5218 316.664 74.8199L318.145 72.0517C318.238 71.8795 318.383 71.7338 318.555 71.6411L321.319 70.1577C322.02 69.7868 322.02 68.7802 321.319 68.4094Z" fill="#CBD5E1"/>
<path d="M106.022 57.7607L103.496 56.3965C103.337 56.317 103.205 56.1846 103.125 56.0256L101.763 53.4959C101.419 52.8601 100.507 52.8601 100.163 53.4959L98.8004 56.0256C98.7211 56.1846 98.5888 56.317 98.4301 56.3965L95.9039 57.7607C95.269 58.1051 95.269 59.0189 95.9039 59.3633L98.4301 60.7275C98.5888 60.807 98.7211 60.9394 98.8004 61.0984L100.163 63.6281C100.507 64.2639 101.419 64.2639 101.763 63.6281L103.125 61.0984C103.205 60.9394 103.337 60.807 103.496 60.7275L106.022 59.3633C106.657 59.0189 106.657 58.1051 106.022 57.7607Z" fill="#754FFE"/>
<path d="M274.895 41.9598L273.043 40.9664C272.924 40.9002 272.832 40.8075 272.766 40.6883L271.774 38.834C271.522 38.3704 270.848 38.3704 270.597 38.834L269.605 40.6883C269.538 40.8075 269.446 40.9002 269.327 40.9664L267.475 41.9598C267.012 42.2114 267.012 42.8869 267.475 43.1386L269.327 44.1319C269.446 44.1982 269.538 44.2909 269.605 44.4101L270.597 46.2643C270.848 46.7279 271.522 46.7279 271.774 46.2643L272.766 44.4101C272.832 44.2909 272.924 44.1982 273.043 44.1319L274.895 43.1386C275.371 42.8869 275.371 42.2114 274.895 41.9598Z" fill="#754FFE"/>
<path d="M223.405 175.798H197.045V299.757H223.405V175.798Z" fill="white"/>
<path d="M220.297 182.884C220.297 177.56 215.985 173.229 210.655 173.229C205.338 173.229 201.013 177.547 201.013 182.884C201.013 182.884 199.769 205.705 210.655 217.851C221.54 205.705 220.297 182.884 220.297 182.884Z" fill="#E2E8F0"/>
<path d="M176.995 130.62C176.995 130.62 140.9 148.117 155.198 199.745C155.198 199.745 162.829 173.798 187.324 167.083L176.995 130.62Z" fill="#754FFE"/>
<path d="M244.633 130.62C244.633 130.62 280.728 148.117 266.43 199.745C266.43 199.745 258.799 173.798 234.304 167.083L244.633 130.62Z" fill="#754FFE"/>
<path d="M222.533 177.838H197.998C197.033 177.838 196.186 177.163 195.975 176.222L194.626 170.275C194.335 168.977 195.313 167.746 196.649 167.746H223.869C225.205 167.746 226.184 168.977 225.893 170.275L224.544 176.222C224.332 177.163 223.499 177.838 222.533 177.838Z" fill="#1E293B"/>
<path d="M174.865 116.674C174.865 116.674 178.635 151.295 190.274 173.229C190.274 173.229 208.751 164.315 230.667 173.229C230.667 173.229 244.012 154.726 246.75 113.932C248.324 90.4223 246.446 63.5883 238.669 40.4761H184.375C177.14 59.3102 171.995 84.5946 174.865 116.674Z" fill="#CBD5E1"/>
<path d="M206.449 2.96677C200.987 9.15209 191.623 21.5492 184.361 40.4761H238.655C233.682 25.6816 226.302 12.4103 215.853 2.5032C213.168 -0.0398074 208.909 0.185355 206.449 2.96677Z" fill="#1E293B"/>
<path d="M209.849 115.005C209.849 115.005 193.197 152.898 209.849 197.944C209.849 197.944 228.353 160.355 209.849 115.005Z" fill="#754FFE"/>
<path d="M211.409 100.819C222.98 100.819 232.36 91.4265 232.36 79.8397C232.36 68.2528 222.98 58.8599 211.409 58.8599C199.839 58.8599 190.459 68.2528 190.459 79.8397C190.459 91.4265 199.839 100.819 211.409 100.819Z" fill="#1E293B"/>
<path d="M225.577 83.1717C227.415 75.3385 222.563 67.4967 214.741 65.6565C206.919 63.8163 199.088 68.6745 197.25 76.5077C195.413 84.3409 200.264 92.1827 208.086 94.0229C215.908 95.8631 223.739 91.0049 225.577 83.1717Z" fill="#F59E0B"/>
<path d="M174.058 335.346C190.99 335.346 204.716 321.79 204.716 305.068C204.716 288.346 190.99 274.791 174.058 274.791C157.126 274.791 143.399 288.346 143.399 305.068C143.399 321.79 157.126 335.346 174.058 335.346Z" fill="white"/>
<path d="M267.859 332.194C283.03 332.194 295.33 320.049 295.33 305.068C295.33 290.087 283.03 277.943 267.859 277.943C252.687 277.943 240.388 290.087 240.388 305.068C240.388 320.049 252.687 332.194 267.859 332.194Z" fill="white"/>
<path d="M222.546 302.763C234.409 302.763 244.025 293.27 244.025 281.558C244.025 269.847 234.409 260.354 222.546 260.354C210.683 260.354 201.066 269.847 201.066 281.558C201.066 293.27 210.683 302.763 222.546 302.763Z" fill="white"/>
<path d="M183.395 283.466C191.657 283.466 198.354 276.854 198.354 268.698C198.354 260.542 191.657 253.93 183.395 253.93C175.134 253.93 168.437 260.542 168.437 268.698C168.437 276.854 175.134 283.466 183.395 283.466Z" fill="white"/>
<path d="M221.553 266.592C227.2 266.592 231.777 262.073 231.777 256.499C231.777 250.925 227.2 246.407 221.553 246.407C215.906 246.407 211.329 250.925 211.329 256.499C211.329 262.073 215.906 266.592 221.553 266.592Z" fill="white"/>
<path d="M203.367 299.227C213.374 299.227 221.487 291.216 221.487 281.333C221.487 271.451 213.374 263.439 203.367 263.439C193.36 263.439 185.247 271.451 185.247 281.333C185.247 291.216 193.36 299.227 203.367 299.227Z" fill="white"/>
<path d="M58.7115 405C89.3108 405 114.116 380.51 114.116 350.299C114.116 320.089 89.3108 295.598 58.7115 295.598C28.1123 295.598 3.30664 320.089 3.30664 350.299C3.30664 380.51 28.1123 405 58.7115 405Z" fill="white"/>
<path d="M125.226 359.968C148.17 359.968 166.77 341.609 166.77 318.962C166.77 296.315 148.17 277.956 125.226 277.956C102.282 277.956 83.6826 296.315 83.6826 318.962C83.6826 341.609 102.282 359.968 125.226 359.968Z" fill="white"/>
<path d="M328.369 404.841C360.794 404.841 387.08 378.886 387.08 346.869C387.08 314.851 360.794 288.896 328.369 288.896C295.943 288.896 269.657 314.851 269.657 346.869C269.657 378.886 295.943 404.841 328.369 404.841Z" fill="white"/>
<path d="M182.761 374.285C205.705 374.285 224.304 355.926 224.304 333.279C224.304 310.632 205.705 292.273 182.761 292.273C159.817 292.273 141.217 310.632 141.217 333.279C141.217 355.926 159.817 374.285 182.761 374.285Z" fill="white"/>
<path d="M232.677 374.285C258.463 374.285 279.366 353.649 279.366 328.194C279.366 302.738 258.463 282.102 232.677 282.102C206.892 282.102 185.988 302.738 185.988 328.194C185.988 353.649 206.892 374.285 232.677 374.285Z" fill="white"/>
</svg>
