<svg width="56" height="56" viewBox="0 0 56 56" fill="none" xmlns="http://www.w3.org/2000/svg">
<rect width="56" height="56" rx="6" fill="#F2EFFF"/>
<g clip-path="url(#clip0_4867_14725)">
<path d="M39.5373 29.7876C38.4186 29.7939 37.4498 30.0626 36.6373 30.4627C36.3373 29.8689 36.0373 29.3501 35.9874 28.9627C35.9311 28.5127 35.8624 28.2376 35.9311 27.7002C35.9998 27.1626 36.3123 26.4001 36.3123 26.3376C36.306 26.2813 36.2435 26.0063 35.5998 26.0001C34.9561 25.9938 34.3998 26.1251 34.3373 26.2938C34.2748 26.4626 34.1498 26.8501 34.0686 27.2501C33.9561 27.8376 32.7811 29.9188 32.1123 31.0126C31.8936 30.5876 31.7061 30.2126 31.6685 29.9125C31.6123 29.4626 31.5435 29.1875 31.6123 28.6501C31.6811 28.1125 31.9936 27.3501 31.9936 27.2876C31.9873 27.2313 31.9248 26.9563 31.2811 26.9501C30.6373 26.9438 30.0811 27.0751 30.0186 27.2438C29.9561 27.4126 29.8874 27.8126 29.7499 28.2001C29.6186 28.5876 28.0561 32.0626 27.6498 32.9688C27.4436 33.4313 27.2624 33.8001 27.1311 34.0501C26.9998 34.3001 27.1248 34.0688 27.1123 34.0938C26.9998 34.3063 26.9373 34.4251 26.9373 34.4251V34.4314C26.8498 34.5877 26.7561 34.7376 26.7123 34.7376C26.681 34.7376 26.6185 34.3188 26.7248 33.7439C26.956 32.5376 27.5185 30.6564 27.5123 30.5877C27.5123 30.5564 27.6185 30.2251 27.1498 30.0564C26.6935 29.8877 26.5311 30.1689 26.4935 30.1689C26.456 30.1689 26.4248 30.2689 26.4248 30.2689C26.4248 30.2689 26.931 28.1502 25.456 28.1502C24.531 28.1502 23.256 29.1565 22.6248 30.0752C22.2248 30.294 21.3748 30.7564 20.4748 31.2502C20.1311 31.4377 19.7748 31.6377 19.4373 31.819L19.3686 31.7438C17.5811 29.8376 14.2749 28.4876 14.4124 25.9251C14.4624 24.9938 14.7874 22.5376 20.7624 19.5626C25.6562 17.1251 29.5749 17.7938 30.2561 19.2813C31.2248 21.4063 28.1623 25.3563 23.0749 25.9251C21.1374 26.1438 20.1186 25.3938 19.8624 25.1126C19.5937 24.8188 19.5562 24.8063 19.4562 24.8626C19.2937 24.9501 19.3937 25.2126 19.4562 25.3688C19.6062 25.7626 20.2312 26.4626 21.2937 26.8126C22.2249 27.1188 24.4999 27.2876 27.2499 26.2251C30.3311 25.0313 32.7374 21.7188 32.0311 18.9501C31.3124 16.1313 26.6374 15.2063 22.2187 16.7751C19.5874 17.7126 16.7374 19.1751 14.6874 21.0938C12.2499 23.3688 11.8624 25.3563 12.0249 26.1813C12.5937 29.1251 16.6499 31.0438 18.2749 32.4626C18.1936 32.5063 18.1186 32.55 18.0499 32.5876C17.2374 32.9875 14.1436 34.6063 13.3686 36.3188C12.4937 38.2563 13.5061 39.6501 14.1811 39.8376C16.2686 40.4188 18.4061 39.3751 19.5624 37.6563C20.7123 35.9376 20.5749 33.7063 20.0436 32.6876L20.0248 32.6501L20.6623 32.2751C21.0749 32.0313 21.4811 31.8063 21.8373 31.6125C21.6374 32.1563 21.4936 32.8 21.4186 33.7375C21.3311 34.8376 21.7811 36.2625 22.3749 36.825C22.6374 37.0687 22.9499 37.075 23.1436 37.075C23.8311 37.075 24.1436 36.5062 24.4874 35.825C24.9124 34.9938 25.2874 34.0313 25.2874 34.0313C25.2874 34.0313 24.8186 36.6375 26.0999 36.6375C26.5686 36.6375 27.0373 36.0313 27.2498 35.7188V35.725C27.2498 35.725 27.2623 35.7063 27.2873 35.6625C27.3136 35.6238 27.3386 35.5842 27.3623 35.5438V35.5313C27.5498 35.2063 27.9686 34.4626 28.5936 33.2313C29.3998 31.6439 30.1748 29.6563 30.1748 29.6563C30.1748 29.6563 30.2498 30.1438 30.4811 30.9438C30.6185 31.4189 30.9185 31.9376 31.1498 32.4438C30.9623 32.7064 30.8498 32.8564 30.8498 32.8564L30.856 32.8627C30.7061 33.0627 30.5373 33.2752 30.3623 33.4877C29.7248 34.2502 28.9623 35.119 28.8623 35.369C28.7436 35.6627 28.7686 35.8814 28.9998 36.0565C29.1686 36.1815 29.4686 36.2064 29.7873 36.1815C30.3623 36.1439 30.7623 36.0002 30.9623 35.9127C31.2748 35.8002 31.6311 35.6314 31.9748 35.3814C32.5998 34.919 32.9811 34.2627 32.9436 33.3877C32.9248 32.9065 32.7686 32.4315 32.5748 31.9815C32.6311 31.9002 32.6874 31.8189 32.7436 31.7315C33.7311 30.2877 34.4936 28.7002 34.4936 28.7002C34.4936 28.7002 34.5686 29.1877 34.7998 29.9877C34.9185 30.394 35.1561 30.8378 35.3686 31.2753C34.4436 32.0315 33.8623 32.9065 33.6623 33.4815C33.2936 34.544 33.5811 35.0253 34.1248 35.1378C34.3685 35.1878 34.7186 35.0753 34.981 34.9628C35.306 34.8565 35.6998 34.6752 36.0623 34.4065C36.6873 33.944 37.2873 33.3003 37.2561 32.4315C37.2373 32.0315 37.1311 31.6378 36.9873 31.2628C37.7748 30.9378 38.7935 30.7503 40.0873 30.9065C42.8685 31.2315 43.4185 32.969 43.3123 33.694C43.2061 34.4191 42.6248 34.819 42.431 34.944C42.2373 35.0628 42.1748 35.1066 42.1935 35.194C42.2185 35.3253 42.306 35.319 42.4748 35.2941C42.706 35.2565 43.9373 34.7003 43.9873 33.3629C44.0623 31.6439 42.431 29.7689 39.5373 29.7876ZM18.0874 37.0188C17.1686 38.0251 15.8749 38.4063 15.3249 38.0813C14.7311 37.7376 14.9623 36.2563 16.0936 35.1876C16.7811 34.5376 17.6749 33.9376 18.2624 33.5688C18.3936 33.4876 18.5936 33.3689 18.8311 33.2251C18.8686 33.2002 18.8936 33.1876 18.8936 33.1876C18.9374 33.1626 18.9874 33.1313 19.0374 33.1001C19.4561 34.6251 19.0561 35.9626 18.0874 37.0188ZM24.8061 32.4501C24.4874 33.2313 23.8124 35.2376 23.4061 35.1251C23.0561 35.0313 22.8436 33.5126 23.3373 32.0126C23.5873 31.2563 24.1185 30.3563 24.431 30.0063C24.9374 29.4438 25.4873 29.2563 25.6249 29.4875C25.7874 29.7876 25.0061 31.9626 24.8061 32.4501ZM30.3498 35.1001C30.2123 35.1689 30.0873 35.2188 30.0311 35.1814C29.9873 35.1564 30.0873 35.0627 30.0873 35.0627C30.0873 35.0627 30.781 34.3189 31.056 33.9752C31.2123 33.7752 31.3998 33.544 31.5998 33.2814V33.3564C31.5998 34.2563 30.7373 34.8563 30.3498 35.1001ZM34.6248 34.1251C34.5248 34.0501 34.5373 33.8188 34.8748 33.0938C35.0061 32.8063 35.306 32.3251 35.8248 31.8688C35.8873 32.0563 35.9248 32.2375 35.9185 32.4063C35.9123 33.5313 35.1123 33.9501 34.6248 34.1251Z" fill="#754FFE"/>
</g>
<defs>
<clipPath id="clip0_4867_14725">
<rect width="32" height="24" fill="white" transform="translate(12 16)"/>
</clipPath>
</defs>
</svg>
